<?xml version="1.0" encoding="UTF-8" standalone="no"?>
<svg
   xmlns:dc="http://purl.org/dc/elements/1.1/"
   xmlns:cc="http://creativecommons.org/ns#"
   xmlns:rdf="http://www.w3.org/1999/02/22-rdf-syntax-ns#"
   xmlns:svg="http://www.w3.org/2000/svg"
   xmlns="http://www.w3.org/2000/svg"
   viewBox="0 0 793.70135 200.21468"
   height="200.21468"
   width="793.70135"
   xml:space="preserve"
   id="svg2"
   version="1.1"><metadata
     id="metadata8"><rdf:RDF><cc:Work
         rdf:about=""><dc:format>image/svg+xml</dc:format><dc:type
           rdf:resource="http://purl.org/dc/dcmitype/StillImage" /></cc:Work></rdf:RDF></metadata><defs
     id="defs6"><clipPath
       id="clipPath18"
       clipPathUnits="userSpaceOnUse"><path
         id="path16"
         d="M 0,150.161 H 595.276 V 0 H 0 Z" /></clipPath><clipPath
       id="clipPath34"
       clipPathUnits="userSpaceOnUse"><path
         id="path32"
         d="M 0,150.161 H 595.276 V 0 H 0 Z" /></clipPath><clipPath
       id="clipPath54"
       clipPathUnits="userSpaceOnUse"><path
         id="path52"
         d="M 0,150.161 H 595.276 V 0 H 0 Z" /></clipPath><clipPath
       id="clipPath66"
       clipPathUnits="userSpaceOnUse"><path
         id="path64"
         d="M 0,150.161 H 595.276 V 0 H 0 Z" /></clipPath></defs><g
     transform="matrix(1.3333333,0,0,-1.3333333,0,200.21467)"
     id="g10"><g
       id="g12"><g
         clip-path="url(#clipPath18)"
         id="g14"><g
           transform="translate(171.7007,101.7594)"
           id="g20"><path
             id="path22"
             style="fill:#172639;fill-opacity:1;fill-rule:nonzero;stroke:none"
             d="m 0,0 c 0,0 11.417,-15.257 12.23,-21.762 h 71.963 c 0,0 11.572,0.047 10.977,-8.132 0,0 1.518,-9.725 -9.351,-9.757 -11.79,-0.035 -11.79,0 -11.79,0 H 12.23 l -0.406,-42.024 h 25.207 l 0.407,22.102 37.811,-0.406 17.889,-21.696 h 34.152 l -26.428,26.981 c 0,0 20.329,4.164 20.329,23.021 0,0 2.803,18.002 -17.889,27.8 0,0 -8.132,4.087 -27.647,3.873 z" /></g></g></g><g
       transform="translate(331.3516,101.7677)"
       id="g24"><path
         id="path26"
         style="fill:#172639;fill-opacity:1;fill-rule:nonzero;stroke:none"
         d="M 0,0 H -24.915 V -81.675 L 1.974,-81.683 V 0 Z" /></g><g
       id="g28"><g
         clip-path="url(#clipPath34)"
         id="g30"><g
           transform="translate(86.4702,44.1476)"
           id="g36"><path
             id="path38"
             style="fill:#f6b60b;fill-opacity:1;fill-rule:nonzero;stroke:none"
             d="m 0,0 v 0.001 c -3.542,2.511 -8.159,7.509 -8.158,16.514 0,0 -0.623,18.411 16.47,19.407 0,0 16.789,2.122 35.419,0.202 0.002,0.003 5.368,9.064 5.503,19.738 -5.835,1.163 -11.312,1.564 -15.451,1.657 -4.572,0.102 -9.522,0.018 -12.796,0.023 -14.28,0.023 -52.669,-3.289 -53.752,-39.45 -0.015,-0.519 -0.113,-2.355 -0.113,-3.699 0.002,-3.872 0.766,-12.435 6.631,-20.622 C -26.191,-6.222 -5.05,-3.643 0,0" /></g><g
           transform="translate(171.7944,60.6627)"
           id="g40"><path
             id="path42"
             style="fill:#f6b60b;fill-opacity:1;fill-rule:nonzero;stroke:none"
             d="M 0,0 C 0,11.341 -3.572,19.568 -8.952,25.536 -8.822,25.05 1.278,-13.263 -52.896,-41.765 4.645,-39.892 0,0 0,0" /></g><g
           transform="translate(131.165,130.9928)"
           id="g44"><path
             id="path46"
             style="fill:#f6b60b;fill-opacity:1;fill-rule:nonzero;stroke:none"
             d="m 0,0 c 0,0 38.8,-19.906 17.207,-64.104 0,0 -12.484,-30.703 -57.019,-42.511 0,0 -46.551,-13.495 -76.415,14.17 0,0 50.92,-23.915 94.634,8.773 0,0 57.019,34.076 21.593,83.672" /></g></g></g><g
       id="g48"><g
         clip-path="url(#clipPath54)"
         id="g50"><g
           transform="translate(431.9326,45.1422)"
           id="g56"><path
             id="path58"
             style="fill:#172639;fill-opacity:1;fill-rule:nonzero;stroke:none"
             d="m 0,0 c -6.195,-4.04 -17.708,-5.111 -27.451,-5.111 -10.191,0 -20.695,0.17 -26.924,4.54 -5.239,3.676 -7.054,11.082 -7.054,16.355 0,5.741 2.243,12.836 8.339,16.612 6.155,3.814 16.21,4.283 25.639,4.283 9.081,0 20.071,-0.571 26.167,-4.14 6.5,-3.806 7.81,-10.8 7.81,-16.755 C 6.526,10.236 5.737,3.741 0,0 m 31.605,16.175 c 0,35.848 -35.632,40.647 -51.541,41.004 -4.572,0.102 -9.522,0.018 -12.795,0.023 -14.282,0.023 -52.669,-3.288 -53.752,-39.451 -0.016,-0.518 -0.115,-2.355 -0.114,-3.699 0.004,-8.612 3.761,-40.449 59.146,-39.701 64.031,-0.865 59.056,41.824 59.056,41.824" /></g></g></g><g
       id="g60"><g
         clip-path="url(#clipPath66)"
         id="g62"><g
           transform="translate(571.6016,81.0187)"
           id="g68"><path
             id="path70"
             style="fill:#172639;fill-opacity:1;fill-rule:nonzero;stroke:none"
             d="m 0,0 v -61.188 h -16.597 c -2.822,0 -7.79,4.403 -7.79,4.403 l -48.659,44.031 v -48.434 h -22.918 v 82.19 h 14.902 c 5.036,-0.069 9.258,-4.516 9.258,-4.516 l 48.547,-44.256 v 47.305 h 9.438 c 0,0 1.053,-0.066 1.568,-0.227 C -9.21,18.351 0.099,14.452 0,0" /></g></g></g></g></svg>